Coordinates
version=1
nRows=17
nColumns=40
inDegrees=yes

Units are S.I. units (second, meters, Newtons, ...)
Angles are in degrees.

endheader
time	pelvis_tilt	pelvis_list	pelvis_rotation	pelvis_tx	pelvis_ty	pelvis_tz	hip_flexion_r	hip_adduction_r	hip_rotation_r	knee_angle_r	knee_angle_r_beta	ankle_angle_r	subtalar_angle_r	mtp_angle_r	hip_flexion_l	hip_adduction_l	hip_rotation_l	knee_angle_l	knee_angle_l_beta	ankle_angle_l	subtalar_angle_l	mtp_angle_l	lumbar_extension	lumbar_bending	lumbar_rotation	arm_flex_r	arm_add_r	arm_rot_r	elbow_flex_r	pro_sup_r	wrist_flex_r	wrist_dev_r	arm_flex_l	arm_add_l	arm_rot_l	elbow_flex_l	pro_sup_l	wrist_flex_l	wrist_dev_l
     30.39000000	     -5.67966336	     -3.06420045	     -3.22126823	      0.71905604	      0.92239245	      0.47570803	     24.07992538	      0.44650302	    -10.32097988	     21.36534885	     21.36534885	      4.75698284	     -2.54745347	     -0.02159725	      1.87192286	     -7.12856406	    -10.88140294	     26.41132307	     26.41132307	     16.75586069	     -7.93341330	     -6.34224698	     -8.76690202	      4.65903976	     -0.91401621	     -7.40663302	    -12.69411295	    -11.78429629	     34.21006216	     46.49838688	      0.00000000	      0.00000000	      7.07585024	    -14.78756510	    -12.22130875	     79.25634517	     47.92600265	      0.00000000	      0.00000000
     30.40314286	     -5.66520471	     -3.18847436	     -2.89562437	      0.72005030	      0.92334812	      0.47820538	     23.38104326	      0.63036223	    -10.72993775	     21.15478452	     21.15478452	      5.21992760	     -2.34826513	     -0.01013746	      3.11454580	     -7.76592012	    -10.15747676	     29.46868287	     29.46868287	     15.59901610	     -9.16700403	     -6.94861456	     -8.97842181	      4.76976668	     -0.87454260	     -6.51289733	    -12.77989327	    -11.41811263	     35.32709571	     46.43168232	      0.00000000	      0.00000000	      6.76292052	    -14.42854471	    -11.75846411	     78.35269674	     47.87739175	      0.00000000	      0.00000000
     30.41628571	     -5.82727665	     -3.12620499	     -2.57874018	      0.72079101	      0.92398743	      0.48035009	     22.95792452	      0.56248813	    -11.22102865	     21.07235579	     21.07235579	      5.81173643	     -1.82590797	      0.34575167	      4.62172895	     -8.00558063	     -8.96037380	     32.37340746	     32.37340746	     12.96404485	    -11.91689712	     -9.69549623	     -8.90373589	      4.79401937	     -0.07112349	     -7.82717242	    -13.75821591	     -8.25877167	     40.96775076	     45.98065888	      0.00000000	      0.00000000	      7.59245030	    -13.89285180	    -10.10293274	     74.75344513	     47.71368045	      0.00000000	      0.00000000
     30.42942857	     -5.93728792	     -3.20919438	     -2.24650106	      0.72134704	      0.92452853	      0.48254104	     22.39998541	      0.70088093	    -11.62563599	     20.81519442	     20.81519442	      6.18904671	     -1.60557866	      0.21844654	      6.41757680	     -8.56045989	     -8.07399059	     35.99380925	     35.99380925	     11.56846666	    -13.15164623	     -9.84260051	     -8.94010188	      4.90468540	     -0.27142432	     -6.57128398	    -13.92127931	     -8.13595084	     42.04804114	     45.93833320	      0.00000000	      0.00000000	      6.91578651	    -13.65417628	     -9.67749781	     73.70454342	     47.66274059	      0.00000000	      0.00000000
     30.44257143	     -6.06259261	     -3.17797771	     -1.91541008	      0.72159831	      0.92500590	      0.48449362	     21.96881515	      0.63751373	    -12.21448564	     20.73230623	     20.73230623	      6.53077231	     -1.02749531	     -0.11620023	      8.34230103	     -8.77392339	     -6.77698662	     39.61527821	     39.61527821	     10.07941505	    -14.90049781	     -8.98378734	     -8.95262298	      4.89831148	     -0.18065819	     -6.21768840	    -14.55389173	     -6.98867844	     45.38763766	     45.74751161	      0.00000000	      0.00000000	      7.01147434	    -13.27979672	     -8.96420453	     70.67650029	     47.56551368	      0.00000000	      0.00000000
     30.45571429	     -6.19021491	     -3.30183635	     -1.59010886	      0.72162042	      0.92531638	      0.48644778	     21.48415454	      0.78808113	    -12.72008497	     20.50902346	     20.50902346	      6.81888242	     -0.67667364	     -0.34377387	     10.46546796	     -9.23039297	     -5.68915388	     43.50670844	     43.50670844	      9.35583293	    -15.53157401	     -6.74396960	     -9.00397186	      5.05610282	      0.31849670	     -6.10972695	    -15.35273589	     -6.03509000	     48.82827738	     45.57106962	      0.00000000	      0.00000000	      7.18514077	    -12.78556005	     -7.90380258	     68.02577450	     47.45081317	      0.00000000	      0.00000000
     30.46885714	     -6.20623522	     -3.50091075	     -1.31100758	      0.72147695	      0.92566837	      0.48840428	     20.93350936	      1.03914718	    -13.13376238	     20.36091327	     20.36091327	      7.12179365	     -0.45597516	     -0.45124018	     12.39354579	     -9.74027457	     -4.69516347	     47.01673001	     47.01673001	      7.94133795	    -16.37737225	     -6.33304969	     -9.21844778	      5.21976955	      0.33855821	     -4.54568942	    -15.69126258	     -6.15980749	     49.81596308	     45.54977339	      0.00000000	      0.00000000	      6.53214736	    -12.41163526	     -7.57852189	     66.99469388	     47.40618092	      0.00000000	      0.00000000
     30.48200000	     -6.38702002	     -3.52855963	     -0.97348608	      0.72097418	      0.92583151	      0.48992487	     20.60328102	      1.03581185	    -13.68240334	     20.25644463	     20.25644463	      7.49077275	      0.04123024	     -0.61564718	     14.75243480	     -9.83661671	     -3.40283430	     50.76978341	     50.76978341	      8.71325354	    -16.29679137	     -0.48839464	     -9.17235452	      5.32405662	      0.70051703	     -4.31632030	    -16.53014197	     -5.54366970	     53.62230986	     45.39433719	      0.00000000	      0.00000000	      6.93087946	    -11.87246815	     -6.85952972	     62.77185974	     47.28803873	      0.00000000	      0.00000000
     30.49514286	     -6.46412236	     -3.63368544	     -0.66257780	      0.72039111	      0.92606187	      0.49149847	     20.16729770	      1.15263044	    -14.12233744	     20.14507506	     20.14507506	      7.82889981	      0.33679896	     -0.73392003	     16.74898021	    -10.06847081	     -2.39744572	     53.70390543	     53.70390543	      7.93467377	    -16.82908422	      0.81806871	     -9.26758257	      5.42119765	      0.46087796	     -2.64994539	    -16.85799973	     -5.65040122	     55.08736472	     45.35875637	      0.00000000	      0.00000000	      6.22704843	    -11.63895072	     -6.58578315	     60.77592596	     47.23142157	      0.00000000	      0.00000000
     30.50828571	     -6.52812350	     -3.75695633	     -0.39588489	      0.71952774	      0.92635169	      0.49295560	     19.75022464	      1.29742524	    -14.51934932	     20.04359373	     20.04359373	      8.15754941	      0.60499019	     -0.74474111	     18.81307979	    -10.25806363	     -1.43628418	     56.51894765	     56.51894765	      8.64454697	    -16.72889691	      5.12049845	     -9.41764571	      5.54058805	      1.02334919	     -1.74765484	    -17.69577221	     -5.28008564	     57.42973355	     45.28048863	      0.00000000	      0.00000000	      6.54279745	    -10.91323455	     -6.41411771	     57.21040524	     47.16200939	      0.00000000	      0.00000000
     30.52142857	     -6.56680263	     -3.89961761	     -0.18219768	      0.71859140	      0.92670006	      0.49441903	     19.31395302	      1.50630054	    -14.76103119	     19.92426871	     19.92426871	      8.40170973	      0.68958942	     -0.80101868	     20.57231358	    -10.52643370	     -0.73706854	     58.45737431	     58.45737431	      8.08702167	    -17.15013100	      5.36018259	     -9.60597681	      5.61612348	      1.09985788	      0.12295290	    -18.11685142	     -5.55329580	     58.42658553	     45.26767834	      0.00000000	      0.00000000	      5.62130148	    -10.56781630	     -6.17174750	     56.10723944	     47.11637186	      0.00000000	      0.00000000
     30.53457143	     -6.66604031	     -3.89720927	      0.07651163	      0.71741944	      0.92713051	      0.49560562	     18.92998502	      1.53156326	    -15.05537313	     19.75872520	     19.75872520	      8.68761909	      0.92187122	     -0.81930348	     22.42084191	    -10.55137108	     -0.08491360	     60.06661989	     60.06661989	      8.73377234	    -17.24412300	      8.11227861	     -9.65862282	      5.62424878	      1.08564470	      1.71494350	    -18.68457273	     -4.96688750	     60.29236190	     45.20205334	      0.00000000	      0.00000000	      5.77573554	    -10.08313182	     -6.32984610	     51.63257697	     47.06309652	      0.00000000	      0.00000000
     30.54771429	     -6.73135511	     -3.93959404	      0.27863079	      0.71614925	      0.92762292	      0.49678699	     18.51757723	      1.64518450	    -15.20036944	     19.56967867	     19.56967867	      8.90401416	      0.96078282	     -0.80080577	     24.07354373	    -10.67245888	      0.36743831	     61.02499885	     61.02499885	      9.13319363	    -17.45385250	      9.51038384	     -9.79416438	      5.62856530	      1.17009548	      3.55958164	    -19.10154053	     -4.97537643	     61.64313374	     45.18165460	      0.00000000	      0.00000000	      5.33771205	     -9.69865426	     -6.41104373	     48.97875542	     47.01902826	      0.00000000	      0.00000000
     30.56085714	     -6.80323256	     -3.95582284	      0.46508140	      0.71478668	      0.92820295	      0.49782632	     18.10875799	      1.73401567	    -15.32449936	     19.35102727	     19.35102727	      9.06629693	      0.99093676	     -0.80844376	     25.59284439	    -10.78623949	      0.64131196	     61.36263900	     61.36263900	      9.46101474	    -17.71402991	     10.33146839	     -9.92315988	      5.60064286	      1.24375847	      5.54892659	    -19.48301095	     -4.86563579	     62.70452506	     45.16612930	      0.00000000	      0.00000000	      4.86480922	     -9.36343495	     -6.50580998	     46.33201412	     46.97806120	      0.00000000	      0.00000000
     30.57400000	     -6.86166107	     -3.94623661	      0.60059768	      0.71330699	      0.92878410	      0.49881930	     17.69431626	      1.81010634	    -15.36545953	     19.12869139	     19.12869139	      9.21271201	      1.00254646	     -0.80699178	     26.94039974	    -10.90466624	      0.72549085	     61.08778805	     61.08778805	      9.67722041	    -17.99527849	     10.41726191	    -10.10881457	      5.51106021	      1.47018469	      7.50807886	    -19.82522969	     -5.12544647	     63.64956468	     45.15510966	      0.00000000	      0.00000000	      3.90482159	     -9.13352132	     -6.39548840	     45.26340496	     46.94339615	      0.00000000	      0.00000000
     30.58714286	     -6.92798986	     -3.95708721	      0.78198386	      0.71181687	      0.92945740	      0.49957982	     17.20259160	      1.91462029	    -15.44914956	     18.74167671	     18.74167671	      9.32261733	      0.98932489	     -0.77002010	     28.16693927	    -11.02643128	      0.71394873	     60.23803704	     60.23803704	     10.04842145	    -18.23938910	     10.77879805	    -10.23277640	      5.52237428	      1.03529627	      9.89229253	    -19.77505400	     -5.17821926	     64.95908295	     45.12729110	      0.00000000	      0.00000000	      3.00432333	     -9.08784318	     -6.27773937	     43.08014173	     46.89715607	      0.00000000	      0.00000000
     30.60028571	     -6.99232509	     -3.92089674	      0.91631630	      0.71024828	      0.93008763	      0.50024734	     16.74292736	      1.96862289	    -15.43952482	     18.40314929	     18.40314929	      9.41987002	      1.01986275	     -0.79703812	     29.26075738	    -11.06105835	      0.64898962	     58.91304479	     58.91304479	     10.51028416	    -18.35770436	     11.48927447	    -10.32905034	      5.44457134	      1.05524289	     12.11521352	    -20.02416331	     -4.81168002	     65.78887100	     45.10404641	      0.00000000	      0.00000000	      2.61477169	     -8.84544484	     -6.26030280	     40.02349685	     46.85758974	      0.00000000	      0.00000000
